<?xml version="1.0" encoding="utf-8"?>
<!-- Generator: Adobe Illustrator 24.0.1, SVG Export Plug-In . SVG Version: 6.00 Build 0)  -->
<svg version="1.1" xmlns="http://www.w3.org/2000/svg" xmlns:xlink="http://www.w3.org/1999/xlink" x="0px" y="0px"
	 viewBox="0 0 345.6 371" style="enable-background:new 0 0 345.6 371;" xml:space="preserve">
<style type="text/css">
	.st0{fill:#000423;}
	.st1{fill:#3888FF;}
</style>
<g id="Backing_1_">
	<path id="Backing" class="st0" d="M173,352.5l-3.1-2.5c-19-15.3-45.9-26.3-69.7-36c-12-4.9-23.3-9.5-31-13.7l-0.2-0.1
		c-0.4-0.2-0.8-0.4-1.1-0.6C44.4,287.4,30.9,271,27.6,251c-0.8-5.1-0.7-10.6,0.4-16.1l6.4-31.7l3.5-21.9c2.1-13,3-26.2,2.8-39.4
		l0-1.4c-0.3-19-2.8-37.7-7.5-55.6c-1.5-5.5-2.8-9.7-4-12.7c-2-4.9-5.6-12-10.5-20.5l-1.9-3.3L51,13.7h244l34.2,34.6l-1.9,3.3
		c-4.9,8.5-8.6,15.6-10.5,20.5c-1.2,3-2.5,7.2-4,12.7c-4.7,17.8-7.2,36.5-7.5,55.6l0,1.4c-0.2,13.2,0.8,26.4,2.8,39.4l3.6,22.5
		l6.3,31.2c1.1,5.6,1.3,11,0.4,16.2c-3.3,20-16.8,36.4-40.2,48.6c-0.4,0.2-0.8,0.4-1.1,0.6l-0.2,0.1c-7.8,4.3-19.1,8.9-31.1,13.8
		c-23.8,9.7-50.7,20.6-69.7,36L173,352.5z"/>
</g>
<g id="Contents">
	<g id="Scott_375th_AMW">
		<path class="st1" d="M182.6,174.3c-1.5-2.7-3.3-5.3-5.2-7.6c-2.4,1.8-5,3.5-7.7,4.9l4.4,9.8l10-4.4c-0.4-0.8-0.8-1.6-1.2-2.4
			L182.6,174.3z"/>
		<path class="st1" d="M186.3,182.6c-0.3-0.8-0.6-1.7-0.9-2.5l-10,4.4l4.4,9.8c2.9-1.1,5.8-2,8.8-2.5c-0.4-3-1.1-6-2.1-9
			L186.3,182.6z"/>
		<path class="st1" d="M173.5,205.2c2.3,2.1,4.9,4,7.6,5.6h0c0.1-0.1,0.2-0.1,0.3-0.2l0,0l1.6-0.8l-5-11.3c-2.5,1.3-4.8,2.7-6.9,4.4
			C171.9,203.7,172.7,204.5,173.5,205.2z"/>
		<path class="st1" d="M160.2,151.3c-0.4,0.2-0.8,0.3-1.1,0.5c-0.4,0.2-0.7,0.3-1.1,0.5l-0.4,0.2l0,0c-2.6,1.3-5.1,3-7.3,4.9
			c2.5,0.2,5.1-0.1,7.5-0.8l3-1.1l2.8-1.5c2.1-1.3,4.1-3,5.6-5c-3,0.3-5.8,1.1-8.6,2.1L160.2,151.3z"/>
		<path class="st1" d="M163.8,193c1.5,2.7,3.3,5.3,5.2,7.6c2.4-1.8,5-3.5,7.7-4.9l-4.4-9.8l-10,4.4c0.4,0.8,0.8,1.6,1.2,2.4
			L163.8,193z"/>
		<path class="st1" d="M160.1,184.7c0.3,0.8,0.6,1.7,0.9,2.5l10-4.4l-4.4-9.8c-2.9,1.1-5.8,2-8.8,2.5c0.4,3,1.1,6,2.1,9L160.1,184.7
			z"/>
		<path class="st1" d="M204.4,234.3c3.8,1.9,8.1,2.2,12.1,1.1l-3.1-1.9c-4.7-2.9-8.4-7.1-10.7-12.1l-0.7-1.6
			c-0.7-2.4-1.8-4.6-3.2-6.6c-2.6,2.2-5.4,4.2-8.5,5.7l-0.2,0.1c-0.3,0.2-0.6,0.3-1,0.5c-0.3,0.2-0.7,0.3-1,0.4l-0.2,0.1
			c-4.7,1.9-9.6,2.8-14.5,2.8c-4.9,0-9.7-0.9-14.4-2.8c-4.5-1.8-8.5-4.4-11.9-7.6c-1.7,2.2-3,4.7-3.8,7.4l-0.7,1.6
			c-2.3,5-6,9.2-10.7,12.1l-3.1,1.9c4,1.2,8.3,0.8,12.1-1.1l2.1-1v0c-1.7,6.2-4.5,12.1-8.2,17.3l-1,1.4l1-0.2
			c6.1-1.5,11.7-4.4,16.5-8.4l0.1,0l0,0.1c-0.8,6.6-2.3,13.1-4.5,19.4v0l1.3,0.1c1.3,0.1,2.5-0.2,3.6-0.9c4-2.4,7.3-5.8,9.5-9.9
			c0.6-1.2,1.1-2.1,1.2-2.1c0.1,0,0.3,0.8,0.6,2c1.6,7.1,4.9,13.7,9.6,19.2c4.7-5.6,7.9-12.2,9.6-19.2c0.3-1.2,0.5-2,0.6-2
			c0.1,0,0.6,0.9,1.2,2.1c2.2,4.1,5.5,7.5,9.5,9.9c1.1,0.6,2.3,0.9,3.6,0.9l1.3-0.1v0c-2.2-6.3-3.7-12.8-4.5-19.4l0-0.1l0.1,0
			c4.8,4,10.5,6.9,16.5,8.4l1,0.2l-1-1.4c-3.7-5.3-6.5-11.1-8.2-17.3v0L204.4,234.3z"/>
		<path class="st1" d="M280.9,125.7L280.9,125.7c-4.4-13.9-13.5-26.8-25.8-34.6c0,0-16-11-29.1-9.4l-1.7,0.2
			c0.7,7.6-0.9,15.3-4.5,22l-0.9,1.7l-1.9,3.2c-5.3,9-15.3,20.7-25.8,21.6c-0.8-0.2-1.5-0.4-2.2-0.8l-0.2-0.1
			c-2.2-1.2-3.9-3.2-4.6-5.6c0,0,0,0,0-0.1c-0.5-1.7-0.8-3.5-0.8-5.4v-1.7c0-1.8,0.3-3.7,0.9-5.4l0.7-2c0.9-2.9,0.4-6-1.5-8.4
			l-0.1-0.1c-1.9-1.6-5.5-2.5-7.9-1.8c-0.8,0.2-1.6,0.2-2.4,0l-0.3-0.1c-1.3-0.3-2.6-0.4-4-0.3l-0.5,0c-2.1,0.5-4.1,1.5-5.6,3.1
			l-1.3,1.3l-1.5,0.3c-3.5,0.8-6.9,2-10,3.7l-0.1,0c-0.9,0.5-1.6,1.3-2,2.2l-0.1,0.3c-0.8,1.8-0.2,3.9,1.4,5.1l0.5,0.4l3.4,0.4
			l-1.4-2.1c-0.2-0.6,0-1.3,0.6-1.6l0.4-0.3c1.2-0.7,2.5-1.1,3.9-1l1.6,0.1c0.3,0,0.6,0.1,0.9,0.2l0.6,0.2c0.3,0.1,0.5,0.5,0.3,0.8
			l-2.4,4.4l2.1,0.5l3-0.9l-0.6,6.7l-2.8,6.1l-2.3,2.1l-3-0.2c-10.1-1.4-19.8-12.7-24.9-21.5l-1.9-3.2l-0.9-1.7
			c-3.7-6.7-5.2-14.4-4.5-22l-1.7-0.2c-13.1-1.7-29.1,9.4-29.1,9.4c-12.3,7.9-21.4,20.7-25.8,34.6c0,0-8.9,20.8,1.5,46.5l2.9,6.6
			l0.3-6.7c0.6-15.5,3.7-30.8,9.3-45.3l0,0.1c-1.8,14.7,1.1,29.6,8.2,42.6l0.6-9.3c0.5-8.9,3.7-17.4,9.2-24.4h0l0.1,0.9
			c1.2,8.1,4.8,15.5,10.5,21.4l-0.4-3.7c-0.6-5.9,0.7-11.9,3.7-17l2.4-6l1.7,1.6c3.5,3.3,6.3,7.3,8.1,11.8v0l-0.2,2.8
			c-0.3,4.7,0.6,9.3,2.6,13.5l0.3,1.1c0.4,1.4,0.3,2.8-0.1,4.1c-0.3,0.8-0.5,1.5-0.6,2.3l-0.1,0.9c-0.1,0.8-0.1,1.7,0.1,2.5
			c1,5.5,4.1,10.5,8.8,13.6l0.7,0.5c-0.4-5.5,0.3-11,2.2-16.3c3.4-9.4,10.3-17,19.3-21.4l0.2-0.1c0.3-0.2,0.7-0.3,1-0.5
			c0.3-0.1,0.7-0.3,1-0.4l0.2-0.1c9.3-3.8,19.5-3.8,28.8,0c9.3,3.7,16.7,10.9,20.8,20.1v0c0,0.1,0.1,0.2,0.1,0.3l0.2,0.4
			c0,0.1,0.1,0.2,0.1,0.3c2.5,5.5,3.6,11.5,3.3,17.4l0.1-0.1c4.7-3.1,7.9-8.1,8.8-13.6c0.1-0.8,0.2-1.7,0.1-2.5l-0.1-0.9
			c-0.1-0.8-0.3-1.6-0.6-2.3c-0.5-1.3-0.5-2.8-0.1-4.1l0.3-1.1c2-4.2,2.9-8.9,2.6-13.5l-0.2-2.8v0c1.8-4.5,4.6-8.5,8.1-11.8l1.7-1.6
			l2.4,6c3,5.1,4.3,11.1,3.7,17l-0.4,3.7h0c5.7-5.8,9.3-13.3,10.5-21.4l0.1-0.9c5.5,7,8.7,15.5,9.2,24.4l0.6,9.3
			c7.1-13,9.9-27.9,8.2-42.6l0-0.1c5.6,14.5,8.7,29.8,9.3,45.3l0.3,6.7l2.9-6.6C289.7,146.5,280.9,125.7,280.9,125.7z"/>
		<path class="st1" d="M168,154.6c2.4,1.5,4.8,3.3,6.9,5.2c0.9,0.8,1.9,1.7,2.8,2.7c0.9-0.8,1.7-1.6,2.4-2.4c1-1.1,2-2.4,3-3.7
			c-3-2.1-6.8-3.9-11.5-5.7C170.5,152.2,169.3,153.5,168,154.6z"/>
		<path class="st1" d="M188.9,152.8c-0.6,1.1-1.2,2.2-1.8,3.2c0.8,0.7,1.6,1.4,2.2,2c2.9,3,5.6,6.4,7.9,10.1
			c0.1,0.2,0.2,0.3,0.3,0.5c0.3,0.6,0.6,1.2,1,1.9l5.3-2.4C200.6,161.5,195.5,156.2,188.9,152.8z"/>
		<path class="st1" d="M174.4,148.9c4.1,1.6,7.4,3.4,10.3,5.3c0.5-0.9,1.1-1.8,1.5-2.7C182.4,149.9,178.4,149,174.4,148.9z"/>
		<path class="st1" d="M194.9,169.6c-2.2-3.5-4.8-6.7-7.6-9.6c-0.5-0.6-1.1-1.1-1.8-1.7c-1,1.4-2.1,2.7-3.2,3.9
			c-0.8,0.9-1.7,1.8-2.6,2.6c2,2.4,3.9,5.1,5.6,8l0.2,0.3c0.5,0.8,0.9,1.7,1.4,2.7l9.2-4.1c-0.3-0.6-0.6-1.2-0.9-1.6
			C195.1,169.9,195,169.7,194.9,169.6z"/>
		<path class="st1" d="M140.6,171.8c1,0.2,2,0.5,3,0.6c0.5-3.4,1.4-7.1,2.9-11.2C144,164.4,142,167.9,140.6,171.8z"/>
		<path class="st1" d="M151.1,173c1.1,0,2.3-0.1,3.4-0.2c-0.1-1.3-0.2-2.6-0.1-3.9c0-2.9,0.3-5.8,0.7-8.7c-1.7,0.3-3.5,0.3-5.2,0.1
			c-1.8,4.6-3,8.7-3.5,12.3C148,173,149.5,173,151.1,173z"/>
		<path class="st1" d="M172.9,162.1c-2.3-2.1-4.9-4-7.6-5.6c-0.1,0.1-0.2,0.1-0.3,0.2l0,0l-1.6,0.8l5,11.3c2.5-1.3,4.8-2.7,6.9-4.4
			C174.6,163.6,173.7,162.8,172.9,162.1z"/>
		<path class="st1" d="M178.4,212.7c-2.4-1.5-4.8-3.3-6.9-5.2c-0.9-0.8-1.9-1.7-2.8-2.7c-0.9,0.8-1.7,1.6-2.4,2.4
			c-1,1.1-2,2.4-3,3.7c3,2.1,6.8,3.9,11.5,5.7C175.9,215.1,177.1,213.8,178.4,212.7z"/>
		<path class="st1" d="M172,218.4c-4.1-1.6-7.4-3.4-10.3-5.3c-0.5,0.9-1.1,1.8-1.5,2.7C164,217.4,168,218.2,172,218.4z"/>
		<path class="st1" d="M158.3,159.6c-0.6,3.1-0.9,6.3-0.9,9.4c0,1.1,0,2.3,0.1,3.4c2.6-0.5,5.3-1.2,7.9-2.2l-5-11.3l-1.6,0.6
			C158.6,159.5,158.5,159.6,158.3,159.6L158.3,159.6z"/>
		<path class="st1" d="M135.2,188.3l-0.7,1.2c-0.6,1-1,2.1-1.2,3.2l-0.1,0.6c-0.2,1.2,0.4,2.4,1.4,3l0.6,0.3l-0.7,1
			c-0.6,0.8-0.9,1.8-0.9,2.8l0.1,0.5c0.2,0.7,0.5,1.4,1.1,1.9l0,0c0.7,0.6,1.6,0.9,2.6,0.8l0.4-0.1c0.6-0.1,1.2-0.2,1.8-0.3l0,0.3
			c0,0.9,0.2,1.8,0.7,2.5c0.6,1,1.7,1.7,2.8,1.9c2.7,0.5,5.5,0.6,8.2,0.1c1.1-0.2,2.2-0.6,3.1-1.2l1.9-1.2l-0.5,0
			c-1.8,0.1-3.6,0.1-5.4-0.1c-0.6-0.1-1.2-0.2-1.7-0.5l-1-0.5c-1.6-0.7-2.8-2.1-3.3-3.7l-0.1-0.4c0.1-0.1,0.1-0.3,0.2-0.4l0,0
			c0.3-0.6,0.8-1.1,1.2-1.6c1.4-1.6,2.8-3.3,3.9-5.1l0.5-0.7l-2.1,0.7c-2.3,0.7-4.8,1.1-7.2,1.2l-0.5-0.2c-0.5-0.1-0.8-0.4-1.1-0.8
			l-0.4-0.6c-0.4-0.6-0.4-1.4,0-2c0.4-0.7,1.1-1.3,1.1-1.3c0.1-0.2,0-0.5-0.2-0.8c-1-1.3-1.3-2.7-1.3-4.4l0-1.4L135.2,188.3z"/>
		<path class="st1" d="M209.2,188.3l0.7,1.2c0.6,1,1,2.1,1.2,3.2l0.1,0.6c0.2,1.2-0.4,2.4-1.4,3l-0.6,0.3l0.7,1
			c0.6,0.8,0.9,1.8,0.9,2.8l-0.1,0.5c-0.2,0.7-0.5,1.4-1.1,1.9l0,0c-0.7,0.6-1.6,0.9-2.6,0.8l-0.4-0.1c-0.6-0.1-1.2-0.2-1.8-0.3
			l0,0.3c0,0.9-0.2,1.8-0.7,2.5c-0.6,1-1.7,1.7-2.8,1.9c-2.7,0.5-5.5,0.6-8.2,0.1c-1.1-0.2-2.2-0.6-3.1-1.2l-1.9-1.2l0.5,0
			c1.8,0.1,3.6,0.1,5.4-0.1c0.6-0.1,1.2-0.2,1.7-0.5l1-0.5c1.6-0.7,2.8-2.1,3.3-3.7l0.1-0.4c-0.1-0.1-0.1-0.3-0.2-0.4l0,0
			c-0.3-0.6-0.8-1.1-1.2-1.6c-1.4-1.6-2.8-3.3-3.9-5.1l-0.5-0.7l2.1,0.7c2.3,0.7,4.8,1.1,7.2,1.2l0.5-0.2c0.5-0.1,0.8-0.4,1.1-0.8
			l0.4-0.6c0.4-0.6,0.4-1.4,0-2c-0.4-0.7-1.1-1.3-1.1-1.3c-0.1-0.2,0-0.5,0.2-0.8c1-1.3,1.3-2.7,1.3-4.4l0-1.4L209.2,188.3z"/>
		<path class="st1" d="M192.1,198.3c0,1.6-0.1,3.2-0.2,4.8c0.7,0,1.4-0.1,2-0.1c0.3,0,0.6-0.1,0.9-0.2l1-0.5c0.6-0.2,1-0.6,1.3-1.1
			c-0.1-0.1-0.2-0.2-0.3-0.3c-1.5-1.7-2.9-3.4-4.1-5.3l-0.6-0.9l-0.1-0.1c0,0-0.1,0-0.1,0C192,195.7,192.1,197,192.1,198.3z"/>
		<path class="st1" d="M142.7,195.4l2.6-1.2c-0.9,0.2-1.9,0.3-2.9,0.4L142.7,195.4z"/>
		<path class="st1" d="M140,180.9l0.2,0.9c0.2,1,0.2,4.4,1.4,5.4c0.9,1.2,1.2,2.7,0.6,3.9l-0.3,0.6l-0.2,0.1
			c1.3-0.1,2.6-0.3,3.8-0.6c0,0,0-0.1,0-0.1c-1.2-4.2-1.9-8.4-2.2-12.6c-0.1-1-0.1-2,0-3c-1.2-0.2-2.4-0.5-3.6-0.8
			c-0.4,1.5-0.7,3-0.8,4.5C139.5,179.5,139.9,180.5,140,180.9z"/>
		<path class="st1" d="M188.4,203l0.4,0c0.2-1.6,0.2-3.1,0.2-4.7c0-1.1,0-2.3-0.1-3.4c-2.6,0.5-5.3,1.2-7.9,2.2l2.4,5.5L188.4,203z"
			/>
		<path class="st1" d="M148.2,190.4C148.2,190.4,148.3,190.4,148.2,190.4l0.8-0.2l4.1-1.3c0.8-0.3,1.6,0.3,1.7,1l3.3-1.5
			c-0.4-0.9-0.8-1.9-1.1-2.8l-0.1-0.3c-1.1-3.2-1.8-6.4-2.3-9.5c-1.3,0.1-2.5,0.2-3.7,0.2c-1.6,0-3.3-0.1-5-0.2c0,0.9,0,1.7,0,2.5
			C146.4,182.3,147.1,186.4,148.2,190.4z"/>
		<path class="st1" d="M192.6,211.1c-0.9-0.1-1.8-0.4-2.6-0.8c-0.4,0.1-0.9,0.2-1.3,0.4l-3,1.1l-2.8,1.5c-2.1,1.3-4.1,3-5.6,5
			c3-0.3,5.8-1.1,8.6-2.1l0.3-0.1c0.4-0.2,0.8-0.3,1.2-0.5c0.4-0.2,0.8-0.4,1.1-0.5l0.3-0.2l0,0c1.9-1,3.8-2.1,5.5-3.5
			C193.8,211.3,193.2,211.2,192.6,211.1z"/>
		<path class="st1" d="M161.2,194.5l-0.2-0.3c-0.5-0.8-0.9-1.7-1.4-2.7l-7.5,3.3l-0.4,0.6c-0.3,0.4-0.5,0.8-0.8,1.2
			c0.1,0.2,0.2,0.4,0.3,0.6c0.1,0.2,0.2,0.3,0.3,0.4c1.2,1.9,2.4,3.6,3.8,5.3c0.1,0,0.1,0,0.2,0l0.5,0l6-0.5c1.4-0.1,2,1.7,0.8,2.5
			l-3.8,2.4c0.5,0.5,1.1,1.1,1.7,1.6c1-1.4,2.1-2.7,3.2-3.9c0.8-0.9,1.7-1.8,2.6-2.6C164.7,200.1,162.8,197.4,161.2,194.5z"/>
		<path class="st1" d="M200.8,176.2c1,3.6,1.7,7.3,2.1,11c1.1-1.1,1.2-4.4,1.3-5.3l0.2-0.9c0.2-0.7,1.2-2.8,2.3-1.4l0.8,1.3
			c-0.3-3.2-1.1-6.4-2.4-9.5l-5.3,2.4c0.3,0.7,0.5,1.4,0.7,2C200.7,175.8,200.8,176,200.8,176.2z"/>
		<path class="st1" d="M156.8,209l-0.9,0.6c-1.2,0.7-2.4,1.3-3.8,1.5c1.7,1.3,3.4,2.5,5.3,3.5c0.6-1.1,1.2-2.2,1.8-3.2
			c-0.8-0.7-1.6-1.4-2.2-2C157,209.2,156.9,209.1,156.8,209z"/>
		<path class="st1" d="M148.7,202.2l1,0.5c0.3,0.1,0.6,0.2,0.9,0.2c0.4,0,0.8,0.1,1.2,0.1c-0.9-1.2-1.8-2.5-2.6-3.9
			c0,0-0.1-0.1-0.1-0.1c-0.5,0.6-1,1.2-1.5,1.7c-0.1,0.1-0.2,0.2-0.3,0.3C147.7,201.6,148.1,202,148.7,202.2z"/>
		<path class="st1" d="M189.3,181.9c0.8,2.3,1.4,4.6,1.8,7c0,0,0.1,0,0.1,0l4.1,1.3l2.1,0.7c0.7,0.2,1.5,0.4,2.2,0.6
			c0.2,0,0.4,0,0.5,0c0-0.9,0-1.7,0-2.5c-0.3-4-1-8.1-2.1-12.1c0-0.1-0.1-0.3-0.2-0.5c-0.2-0.5-0.4-1.1-0.6-1.7l-9.2,4.1
			c0.4,0.9,0.7,1.9,1.1,2.8L189.3,181.9z"/>
	</g>
</g>
<g id="Frame">
	<g id="OVER">
		<path id="_x36__Pt_Stroke" class="st0" d="M304.1,139.8c0.3-19.1,2.8-37.9,7.5-55.8c1.5-5.6,2.8-9.8,4-12.8
			c2-4.9,5.6-12,10.6-20.6l1.5-2.6l-2.1-2.2l-30-30.4l-1.2-1.2h-1.7H172.8H52.9h-1.7L50,15.4L20,45.7l-2.1,2.2l1.5,2.6
			C24.3,59.1,28,66.2,30,71.1c1.2,3.1,2.6,7.3,4,12.8c4.7,17.9,7.3,36.7,7.5,55.8l0,1.4c0.2,13.2-0.8,26.5-2.8,39.6l-3.5,21.9l0,0.3
			l-0.1,0.3l-5.7,28.2l-0.6,3c-1.1,5.5-1.2,10.8-0.4,15.8C31.6,270,45,286.1,68,298.1c0.4,0.2,0.7,0.4,1.1,0.6l0.2,0.1l0,0l0,0
			c7.7,4.2,19,8.8,30.9,13.7c23.8,9.7,50.8,20.7,70,36.1l2.5,2l2.5-2c19.1-15.4,46.1-26.4,69.9-36.1c12-4.9,23.3-9.5,30.9-13.7l0,0
			l0,0l0.2-0.1c0.4-0.2,0.8-0.4,1.2-0.6c23.1-12,36.4-28.1,39.7-47.8c0.8-5,0.7-10.3-0.4-15.8l-0.6-3l-5.7-28.2l-0.1-0.3l0-0.3
			l-3.5-21.9c-2.1-13-3-26.4-2.8-39.6L304.1,139.8z M295,182.7l3.5,21.9l0.1,0.4l0,0.2l0,0.2l0.1,0.4l5.7,28.2l0.6,3
			c0.8,4,0.9,7.9,0.3,11.4c-2.6,15.8-13.8,29-33.3,39.1c-0.5,0.2-1,0.5-1.6,0.9l-0.1,0.1c-7,3.9-18,8.3-29.6,13
			c-22.6,9.2-48,19.5-67.9,34c-19.9-14.5-45.3-24.8-67.9-34c-11.6-4.7-22.6-9.2-29.6-13l-0.1-0.1c-0.6-0.3-1.1-0.6-1.5-0.8
			c-19.5-10.2-30.8-23.4-33.4-39.2c-0.6-3.6-0.5-7.4,0.3-11.4l0.6-3l5.7-28.2l0.1-0.4l0-0.2l0-0.2l0.1-0.4l3.5-21.9
			c2.2-13.7,3.2-27.7,3-41.6l0-1.4c-0.3-20.1-2.9-39.9-7.9-58.7c-1.6-6-3.1-10.7-4.5-14.2c-1.8-4.4-4.6-10-8.3-16.8l23.4-23.7h116.6
			h116.6l23.4,23.7c-3.7,6.8-6.5,12.4-8.3,16.8c-1.4,3.5-2.9,8.2-4.5,14.2c-5,18.9-7.7,38.6-7.9,58.7l0,1.4
			C291.9,155,292.9,169,295,182.7z"/>
		<path id="Frame_1_" class="st1" d="M322.7,48.5c-3.9,6.7-8.3,14.9-10.8,21.1c-1.3,3.2-2.7,7.6-4.2,13.3
			c-4.8,18.2-7.4,37.3-7.7,56.8l0,1.4c-0.2,13.4,0.8,27,2.9,40.2l3.5,21.9l0.1,0.4l0.1,0.4l5.7,28.2l0.6,3c1,5,1.1,9.8,0.4,14.3
			c-3,18.4-15.7,33.5-37.6,44.9c-0.4,0.2-0.9,0.5-1.3,0.7l-0.2,0.1c-7.5,4.1-18.7,8.7-30.5,13.5c-24.4,9.9-51.4,20.9-71,36.7
			c-19.6-15.8-46.6-26.8-71-36.7c-11.9-4.8-23-9.4-30.5-13.5l-0.2-0.1c-0.4-0.2-0.9-0.5-1.3-0.7c-21.9-11.4-34.5-26.6-37.6-45
			c-0.7-4.5-0.6-9.4,0.4-14.3l0.6-3l5.7-28.2l0.1-0.4l0.1-0.4l3.5-21.9c2.1-13.3,3.1-26.8,2.9-40.2l0-1.4
			c-0.3-19.5-2.8-38.6-7.7-56.8c-1.5-5.7-2.9-10.1-4.2-13.3c-2.5-6.2-6.9-14.4-10.8-21.1l30-30.4h239.8L322.7,48.5z M300.3,0H172.8
			H45.3L0,45.8c0,0,12.5,19.8,16.8,30.6c1.1,2.7,2.3,6.7,3.5,11.2c4.5,17.1,6.8,34.7,7.1,52.4l0,1.4c0.2,12.4-0.7,24.9-2.7,37.2
			l-3.5,21.9l-5.7,28.2l-0.6,3c-1.4,6.9-1.7,14-0.5,20.9c3,18,14,40.8,47.1,58.1c0.4,0.2,0.7,0.4,1.1,0.6
			c27.2,15,87.2,30.6,110.2,59.7c23-29.1,83-44.7,110.2-59.7c0.4-0.2,0.7-0.4,1.1-0.6c33.1-17.3,44.1-40.1,47.1-58.1
			c1.1-6.9,0.9-14-0.5-20.9l-0.6-3l-5.7-28.2l-3.5-21.9c-1.9-12.3-2.8-24.7-2.7-37.2l0-1.4c0.2-17.7,2.5-35.3,7.1-52.4
			c1.2-4.4,2.4-8.4,3.5-11.2c4.4-10.8,16.8-30.6,16.8-30.6L300.3,0L300.3,0z"/>
	</g>
</g>
</svg>
